<?xml version="1.0" standalone="no"?>
<!DOCTYPE svg PUBLIC "-//W3C//DTD SVG 20010904//EN"
 "http://www.w3.org/TR/2001/REC-SVG-20010904/DTD/svg10.dtd">
<svg version="1.0" xmlns="http://www.w3.org/2000/svg"
 width="512.000000pt" height="512.000000pt" viewBox="0 0 512.000000 512.000000"
 preserveAspectRatio="xMidYMid meet">
<metadata>
Created by potrace 1.14, written by Peter Selinger 2001-2017
</metadata>
<g transform="translate(0.000000,512.000000) scale(0.100000,-0.100000)"
fill="#000000" stroke="none">
<path d="M2330 4876 l0 -244 -87 -12 c-905 -125 -1618 -838 -1743 -1742 l-12
-88 -244 0 -244 0 0 -230 0 -230 244 0 244 0 12 -72 c111 -691 535 -1275 1143
-1572 185 -90 404 -158 605 -187 l82 -11 0 -244 0 -244 230 0 230 0 0 244 0
244 73 12 c690 111 1274 535 1571 1143 90 185 158 404 187 604 l11 83 244 0
244 0 0 230 0 230 -244 0 -244 0 -12 73 c-111 690 -535 1274 -1143 1571 -185
90 -404 158 -604 187 l-83 11 0 244 0 244 -230 0 -230 0 0 -244z m501 -711
c338 -55 633 -207 880 -454 253 -253 405 -555 460 -911 17 -109 17 -371 0
-480 -55 -356 -207 -658 -460 -911 -214 -214 -442 -345 -732 -422 -144 -38
-249 -51 -419 -51 -170 0 -275 13 -419 51 -290 77 -518 208 -732 422 -253 253
-405 555 -460 911 -17 109 -17 371 0 480 55 356 207 658 460 911 285 284 611
433 1036 473 70 7 298 -4 386 -19z"/>
<path d="M2435 3484 c-254 -41 -477 -175 -622 -374 -78 -105 -121 -198 -160
-340 -13 -48 -17 -103 -17 -210 0 -149 9 -203 55 -330 72 -198 230 -378 429
-488 138 -77 260 -106 440 -106 149 0 203 9 330 55 236 86 453 303 539 539 46
127 55 181 55 330 0 149 -9 203 -55 330 -56 154 -173 309 -309 409 -171 127
-321 179 -530 186 -69 2 -138 1 -155 -1z"/>
</g>
</svg>
